<svg width="26" height="26" viewBox="0 -1 26 26" fill="none" xmlns="http://www.w3.org/2000/svg">
                        <path fill-rule="evenodd" clip-rule="evenodd" d="M3.79932 0.335693H21.5295C23.6278 0.335693 25.3288 2.03671 25.3288 4.13501V21.8652C25.3288 23.9635 23.6278 25.6645 21.5295 25.6645L14.6432 25.6645V16.6609H17.5916L18.1556 13.0001H14.6432V10.6255C14.6432 9.62621 15.133 8.6467 16.7061 8.6467H18.304V5.53007C18.304 5.53007 16.8545 5.28272 15.4694 5.28272C12.5754 5.28272 10.6856 7.03397 10.6856 10.21V13.0001H7.47002V16.6609H10.6856V25.6645L3.79932 25.6645C1.70101 25.6645 0 23.9635 0 21.8652V4.13501C0 2.03671 1.70101 0.335693 3.79932 0.335693Z" fill="inherit"/>
                        </svg>