<svg width="25" height="26" viewBox="0 -1 25 26" fill="none" xmlns="http://www.w3.org/2000/svg">
                        <path d="M12.5454 0.5C9.22788 0.5 8.81153 0.514844 7.50854 0.575521C6.20809 0.636459 5.32043 0.847135 4.54373 1.15625C3.7403 1.47552 3.05878 1.9026 2.3798 2.59766C1.70031 3.29245 1.28294 3.98984 0.969918 4.81172C0.667075 5.60677 0.460938 6.51536 0.402405 7.84557C0.344127 9.17891 0.328857 9.60521 0.328857 13C0.328857 16.3948 0.343618 16.8195 0.40266 18.1529C0.462465 19.4836 0.668348 20.3919 0.970173 21.1867C1.28243 22.0089 1.6998 22.7062 2.37903 23.401C3.05776 24.0964 3.73928 24.5245 4.5422 24.8437C5.31941 25.1529 6.20733 25.3635 7.50752 25.4245C8.81051 25.4852 9.2266 25.5 12.5439 25.5C15.8617 25.5 16.2768 25.4852 17.5797 25.4245C18.8802 25.3635 19.7689 25.1529 20.5461 24.8437C21.3493 24.5245 22.0298 24.0964 22.7085 23.401C23.388 22.7062 23.8053 22.0089 24.1184 21.187C24.4187 20.3919 24.6248 19.4833 24.6859 18.1531C24.7444 16.8198 24.7597 16.3948 24.7597 13C24.7597 9.60521 24.7444 9.17916 24.6859 7.84583C24.6248 6.5151 24.4187 5.60677 24.1184 4.81198C23.8053 3.98984 23.388 3.29245 22.7085 2.59766C22.029 1.90234 21.3495 1.47526 20.5453 1.15625C19.7666 0.847135 18.8784 0.636459 17.578 0.575521C16.275 0.514844 15.8602 0.5 12.5416 0.5H12.5454ZM11.4496 2.7526C11.7748 2.75208 12.1377 2.7526 12.5454 2.7526C15.807 2.7526 16.1935 2.76458 17.4815 2.82448C18.6725 2.88021 19.3189 3.08385 19.7495 3.25495C20.3196 3.48151 20.726 3.75234 21.1533 4.18984C21.5808 4.62734 21.8455 5.04401 22.0674 5.62734C22.2346 6.06745 22.4339 6.72891 22.4881 7.94765C22.5466 9.26536 22.5594 9.6612 22.5594 12.9971C22.5594 16.3331 22.5466 16.7289 22.4881 18.0466C22.4336 19.2654 22.2346 19.9268 22.0674 20.3669C21.846 20.9503 21.5808 21.3656 21.1533 21.8029C20.7258 22.2404 20.3198 22.5112 19.7495 22.7378C19.3194 22.9096 18.6725 23.1128 17.4815 23.1685C16.1938 23.2284 15.807 23.2414 12.5454 23.2414C9.28361 23.2414 8.89704 23.2284 7.60932 23.1685C6.4183 23.1122 5.7719 22.9086 5.34105 22.7375C4.77099 22.5109 4.3638 22.2401 3.93626 21.8026C3.50871 21.3651 3.24404 20.9495 3.02213 20.3659C2.85493 19.9258 2.65566 19.2643 2.60146 18.0456C2.54292 16.7279 2.53122 16.332 2.53122 12.994C2.53122 9.65599 2.54292 9.26224 2.60146 7.94453C2.65592 6.72578 2.85493 6.06432 3.02213 5.6237C3.24354 5.04036 3.50871 4.6237 3.93626 4.1862C4.3638 3.7487 4.77099 3.47786 5.34105 3.25078C5.77164 3.07891 6.4183 2.87578 7.60932 2.81979C8.7362 2.76771 9.17291 2.75208 11.4496 2.74948V2.7526ZM19.066 4.82812C18.2567 4.82812 17.6001 5.49922 17.6001 6.3276C17.6001 7.15573 18.2567 7.8276 19.066 7.8276C19.8752 7.8276 20.5318 7.15573 20.5318 6.3276C20.5318 5.49948 19.8752 4.8276 19.066 4.8276V4.82812ZM12.5454 6.58073C9.08104 6.58073 6.27223 9.45495 6.27223 13C6.27223 16.545 9.08104 19.418 12.5454 19.418C16.0098 19.418 18.8176 16.545 18.8176 13C18.8176 9.45495 16.0095 6.58073 12.5452 6.58073H12.5454ZM12.5454 8.83333C14.7941 8.83333 16.6173 10.6987 16.6173 13C16.6173 15.301 14.7941 17.1667 12.5454 17.1667C10.2965 17.1667 8.47357 15.301 8.47357 13C8.47357 10.6987 10.2965 8.83333 12.5454 8.83333Z" fill="#E0B451"/>
                        </svg>